<svg width="82" height="74" viewBox="0 0 82 74" fill="none" xmlns="http://www.w3.org/2000/svg">
<path fill-rule="evenodd" clip-rule="evenodd" d="M12.4156 8.41667C10.1612 8.41667 8.33342 10.2441 8.33342 12.5V49.25C8.33342 51.5059 10.1612 53.3333 12.4156 53.3333H28.7501C31.7046 53.3333 34.4907 53.7975 36.9167 54.9021V16.5833C36.9167 13.1294 36.056 11.289 35.0502 10.2832C34.0444 9.27738 32.204 8.41667 28.7501 8.41667H12.4156ZM41.0001 4.68706C40.9424 4.62709 40.884 4.56756 40.8249 4.50848C37.7474 1.43095 33.4628 0.25 28.7501 0.25H12.4156C5.64936 0.25 0.166748 5.73526 0.166748 12.5V61.5C0.166748 68.2655 5.65126 73.75 12.4167 73.75H69.5834C76.3489 73.75 81.8334 68.2655 81.8334 61.5V12.5C81.8334 5.73526 76.3508 0.25 69.5846 0.25H53.2501C48.5373 0.25 44.2528 1.43095 41.1752 4.50848C41.1161 4.56756 41.0578 4.62709 41.0001 4.68706ZM45.0834 16.5833V54.9021C47.5094 53.7975 50.2956 53.3333 53.2501 53.3333H69.5846C71.839 53.3333 73.6668 51.5059 73.6668 49.25V12.5C73.6668 10.2441 71.839 8.41667 69.5846 8.41667H53.2501C49.7962 8.41667 47.9557 9.27738 46.9499 10.2832C45.9441 11.289 45.0834 13.1294 45.0834 16.5833ZM73.6668 60.8033C72.39 61.2545 71.016 61.5 69.5846 61.5H53.2501C49.7962 61.5 47.9557 62.3607 46.9499 63.3665C46.4495 63.8669 45.9851 64.5739 45.6446 65.5833H69.5834C71.8386 65.5833 73.6668 63.7552 73.6668 61.5V60.8033ZM36.3556 65.5833C36.0151 64.5739 35.5506 63.8669 35.0502 63.3665C34.0444 62.3607 32.204 61.5 28.7501 61.5H12.4156C10.9842 61.5 9.61019 61.2545 8.33342 60.8033V61.5C8.33342 63.7552 10.1616 65.5833 12.4167 65.5833H36.3556Z" fill="white"/>
</svg>
