<svg width="98" height="98" viewBox="0 0 98 98" fill="none" xmlns="http://www.w3.org/2000/svg">
<path fill-rule="evenodd" clip-rule="evenodd" d="M36.3718 18.5923C34.1349 16.3554 30.7589 15.7115 27.8557 16.9681C17.5636 21.4229 13.4015 31.9719 18.6203 40.2789C22.6224 46.6491 28.2486 54.1291 36.0597 61.9402C43.8709 69.7513 51.3508 75.3776 57.7211 79.3796C66.0281 84.5984 76.577 80.4363 81.0318 70.1442C82.2884 67.2411 81.6445 63.865 79.4076 61.6281L78.0005 60.221C74.7414 56.9619 69.7545 56.1719 65.6477 58.264L60.421 60.9267C55.748 63.3072 50.0736 62.4083 46.3652 58.6999L39.3 51.6347C35.5916 47.9263 34.6927 42.2519 37.0733 37.5789L39.7359 32.3522C41.8281 28.2454 41.038 23.2585 37.779 19.9994L40.6663 17.1121L37.779 19.9994L36.3718 18.5923ZM42.1465 12.8176L39.3332 15.6309L42.1465 12.8176L43.5537 14.2247C49.3143 19.9854 50.7108 28.8002 47.0127 36.0593L44.3501 41.286C43.5754 42.8067 43.868 44.6532 45.0747 45.86L52.1399 52.9252C53.3467 54.132 55.1933 54.4245 56.714 53.6498L61.9406 50.9872C69.1998 47.2891 78.0145 48.6856 83.7752 54.4463L85.1824 55.8534C89.7881 60.4592 91.1139 67.4106 88.5265 73.3882C82.6619 86.9376 67.0677 94.8961 53.3767 86.2949C46.5225 81.9888 38.5563 75.9861 30.285 67.7149C22.0138 59.4436 16.0111 51.4774 11.7051 44.6233C3.10384 30.9322 11.0624 15.338 24.6117 9.47339C30.5893 6.88608 37.5408 8.21184 42.1465 12.8176Z" fill="white"/>
</svg>
