<svg width="52" height="52" viewBox="0 0 52 52" fill="none" xmlns="http://www.w3.org/2000/svg">
<path fill-rule="evenodd" clip-rule="evenodd" d="M19.2993 9.8653C18.1124 8.67839 16.321 8.33674 14.7806 9.0035C9.31945 11.3673 7.11101 16.9647 9.88015 21.3725C12.0037 24.7526 14.9891 28.7215 19.1337 32.8662C23.2784 37.0109 27.2474 39.9963 30.6275 42.1198C35.0353 44.8889 40.6327 42.6805 42.9965 37.2194C43.6632 35.6789 43.3216 33.8875 42.1346 32.7006L41.388 31.954C39.6587 30.2247 37.0126 29.8055 34.8335 30.9156L32.0601 32.3284C29.5806 33.5916 26.5696 33.1146 24.6019 31.1469L20.8531 27.398C18.8854 25.4303 18.4084 22.4194 19.6715 19.9398L21.0844 17.1665C22.1945 14.9874 21.7753 12.3413 20.046 10.612L21.578 9.07989L20.046 10.612L19.2993 9.8653ZM22.3634 6.80117L20.8707 8.29395L22.3634 6.80117L23.1101 7.54783C26.1668 10.6045 26.9078 15.2817 24.9455 19.1335L23.5327 21.9068C23.1216 22.7137 23.2769 23.6936 23.9172 24.3339L27.6661 28.0828C28.3064 28.7231 29.2862 28.8783 30.0931 28.4673L32.8664 27.0544C36.7182 25.0922 41.3955 25.8332 44.4521 28.8899L45.1988 29.6365C47.6426 32.0804 48.3461 35.7689 46.9733 38.9407C43.8614 46.1301 35.5869 50.353 28.3223 45.7891C24.6854 43.5043 20.4584 40.3192 16.0696 35.9304C11.6808 31.5415 8.49568 27.3146 6.21084 23.6777C1.64692 16.413 5.86982 8.13856 13.0593 5.0267C16.2311 3.65384 19.9196 4.35731 22.3634 6.80117Z" fill="black"/>
</svg>
