<svg width="51" height="51" viewBox="0 0 51 51" fill="none" xmlns="http://www.w3.org/2000/svg">
<g clip-path="url(#clip0_8_26)">
<path d="M33.327 0H17.6716C3.38526 0 -0.00146484 3.38672 -0.00146484 17.6731V33.3285C-0.00146484 47.6149 3.38526 51.0016 17.6716 51.0016H33.327C47.6134 51.0016 51.0001 47.6149 51.0001 33.3285V17.6731C51.0001 3.38672 47.5799 0 33.327 0ZM41.1715 36.3821H37.4692C36.0667 36.3821 35.6348 35.2697 33.1119 32.7133C30.9205 30.5888 29.9499 30.3068 29.4096 30.3068C28.6462 30.3068 28.4294 30.5219 28.4294 31.569V34.9143C28.4294 35.8116 28.1473 36.3503 25.7727 36.3503C21.8457 36.3503 17.4883 33.9756 14.4331 29.5513C9.8256 23.0679 8.56494 18.2118 8.56494 17.2077C8.56494 16.6674 8.7801 16.1622 9.81763 16.1622H13.5279C14.4666 16.1622 14.8236 16.5941 15.1886 17.5982C17.023 22.8942 20.0782 27.5336 21.3388 27.5336C21.8042 27.5336 22.0194 27.3185 22.0194 26.1311V20.6614C21.8775 18.1385 20.5499 17.9217 20.5499 17.026C20.5499 16.5941 20.9069 16.1622 21.4791 16.1622H27.3138C28.1027 16.1622 28.3928 16.5941 28.3928 17.5233V24.9023C28.3928 25.6992 28.7498 25.9813 28.9649 25.9813C29.4303 25.9813 29.8288 25.6992 30.691 24.8354C33.3557 21.8471 35.265 17.2396 35.265 17.2396C35.5137 16.6993 35.9456 16.1941 36.8843 16.1941H40.5945C41.707 16.1941 41.9556 16.7663 41.707 17.5631C41.2416 19.7211 36.701 26.1295 36.701 26.1295C36.3105 26.7766 36.1607 27.0587 36.701 27.7807C37.0994 28.3209 38.3952 29.4413 39.2574 30.4454C40.8432 32.2463 42.0624 33.7572 42.3875 34.8027C42.7525 35.8402 42.2138 36.3805 41.1667 36.3805L41.1715 36.3821Z" fill="black"/>
</g>
<defs>
<clipPath id="clip0_8_26">
<rect width="51" height="51" fill="white"/>
</clipPath>
</defs>
</svg>
