<svg width="51" height="51" viewBox="0 0 51 51" fill="none" xmlns="http://www.w3.org/2000/svg">
<rect width="51" height="51" fill="black"/>
<path d="M9.22466 34V12.9091H23.4363V16.5856H13.6838V21.6112H22.7051V25.2876H13.6838V30.3235H23.4775V34H9.22466ZM30.7062 24.8551V34H26.3191V18.1818H30.5002V20.9727H30.6856C31.0357 20.0527 31.6227 19.3249 32.4466 18.7894C33.2705 18.247 34.2694 17.9759 35.4434 17.9759C36.5419 17.9759 37.4996 18.2161 38.3166 18.6967C39.1336 19.1773 39.7687 19.8639 40.2218 20.7564C40.6749 21.642 40.9015 22.6993 40.9015 23.9283V34H36.5144V24.7109C36.5213 23.7429 36.2741 22.9877 35.7729 22.4453C35.2718 21.8961 34.5818 21.6214 33.703 21.6214C33.1126 21.6214 32.5908 21.7485 32.1376 22.0025C31.6914 22.2565 31.3412 22.6272 31.0872 23.1147C30.8401 23.5953 30.713 24.1754 30.7062 24.8551Z" fill="white"/>
</svg>
