<svg width="98" height="98" viewBox="0 0 98 98" fill="none" xmlns="http://www.w3.org/2000/svg">
<path fill-rule="evenodd" clip-rule="evenodd" d="M28.5834 20.4167C28.5834 13.6513 34.0679 8.16675 40.8334 8.16675H57.1667C63.9322 8.16675 69.4167 13.6513 69.4167 20.4167V28.5834H77.5834C84.3488 28.5834 89.8334 34.0679 89.8334 40.8334V57.1667C89.8334 63.9322 84.3488 69.4168 77.5834 69.4168H69.4167V77.5834C69.4167 84.3489 63.9322 89.8334 57.1667 89.8334H40.8334C34.0679 89.8334 28.5834 84.3489 28.5834 77.5834V69.4168H20.4167C13.6512 69.4168 8.16669 63.9322 8.16669 57.1667L8.16669 40.8334C8.16669 34.0679 13.6512 28.5834 20.4167 28.5834H28.5834V20.4167ZM40.8334 16.3334C38.5782 16.3334 36.75 18.1616 36.75 20.4167V32.6668C36.75 34.9219 34.9219 36.7501 32.6667 36.7501H20.4167C18.1615 36.7501 16.3334 38.5783 16.3334 40.8334L16.3334 57.1667C16.3334 59.4219 18.1615 61.2501 20.4167 61.2501H32.6667C34.9219 61.2501 36.75 63.0783 36.75 65.3334V77.5834C36.75 79.8386 38.5782 81.6667 40.8334 81.6667H57.1667C59.4218 81.6667 61.25 79.8386 61.25 77.5834V65.3334C61.25 63.0783 63.0782 61.2501 65.3334 61.2501H77.5834C79.8385 61.2501 81.6667 59.4219 81.6667 57.1667V40.8334C81.6667 38.5783 79.8385 36.7501 77.5834 36.7501H65.3334C63.0782 36.7501 61.25 34.9219 61.25 32.6667V20.4167C61.25 18.1616 59.4218 16.3334 57.1667 16.3334H40.8334Z" fill="white"/>
</svg>
