<svg width="52" height="52" viewBox="0 0 52 52" fill="none" xmlns="http://www.w3.org/2000/svg">
<path fill-rule="evenodd" clip-rule="evenodd" d="M26 8.66659C20.0169 8.66659 15.1666 13.5168 15.1666 19.4999C15.1666 25.6985 18.1356 31.7599 21.2929 36.4133C22.8528 38.7124 24.4155 40.6047 25.5869 41.9203C25.7309 42.0821 25.8689 42.2349 26 42.3785C26.1311 42.2349 26.269 42.0821 26.4131 41.9203C27.5845 40.6047 29.1472 38.7124 30.7071 36.4133C33.8643 31.7599 36.8333 25.6985 36.8333 19.4999C36.8333 13.5168 31.9831 8.66659 26 8.66659ZM26 45.4999C24.5096 47.0725 24.5091 47.0721 24.5086 47.0716L24.5038 47.067L24.4933 47.057L24.4584 47.0235C24.4291 46.9952 24.3878 46.9551 24.3353 46.9035C24.2303 46.8003 24.0804 46.6511 23.8921 46.4585C23.5156 46.0734 22.9846 45.514 22.3506 44.8019C21.0845 43.38 19.3972 41.3373 17.707 38.8463C14.3643 33.9196 10.8333 26.981 10.8333 19.4999C10.8333 11.1236 17.6237 4.33325 26 4.33325C34.3763 4.33325 41.1666 11.1236 41.1666 19.4999C41.1666 26.981 37.6356 33.9196 34.2929 38.8463C32.6028 41.3373 30.9155 43.38 29.6494 44.8019C29.0154 45.514 28.4844 46.0734 28.1079 46.4585C27.9196 46.6511 27.7697 46.8003 27.6647 46.9035C27.6122 46.9551 27.5709 46.9952 27.5416 47.0235L27.5067 47.057L27.4962 47.067L27.4927 47.0704C27.4922 47.0709 27.4904 47.0725 26 45.4999ZM26 45.4999L27.4904 47.0725C26.6546 47.8646 25.3443 47.8637 24.5086 47.0716L26 45.4999ZM26 17.3333C24.8034 17.3333 23.8333 18.3033 23.8333 19.4999C23.8333 20.6965 24.8034 21.6666 26 21.6666C27.1966 21.6666 28.1666 20.6965 28.1666 19.4999C28.1666 18.3033 27.1966 17.3333 26 17.3333ZM19.5 19.4999C19.5 15.9101 22.4101 12.9999 26 12.9999C29.5898 12.9999 32.5 15.9101 32.5 19.4999C32.5 23.0898 29.5898 25.9999 26 25.9999C22.4101 25.9999 19.5 23.0898 19.5 19.4999Z" fill="black"/>
</svg>
