<svg width="52" height="52" viewBox="0 0 52 52" fill="none" xmlns="http://www.w3.org/2000/svg">
<path fill-rule="evenodd" clip-rule="evenodd" d="M16.0503 1.97914C21.3381 -0.211143 27.2008 -0.59541 32.7293 0.885937C38.2578 2.36728 43.143 5.63146 46.6272 10.1722C50.1114 14.7129 52 20.2765 52 26V29.9C52 34.9258 47.9258 39 42.9 39C39.769 39 37.0074 37.4187 35.37 35.0113C33.0048 37.47 29.6811 39 26 39C18.8203 39 13 33.1797 13 26C13 18.8203 18.8203 13 26 13C28.9266 13 31.6273 13.9671 33.8 15.599C33.8005 14.1635 34.9644 13 36.4 13C37.8359 13 39 14.1641 39 15.6V29.9C39 32.0539 40.7461 33.8 42.9 33.8C45.0539 33.8 46.8 32.0539 46.8 29.9V26C46.8 21.4212 45.2891 16.9704 42.5018 13.3378C39.7144 9.70516 35.8062 7.09382 31.3834 5.90875C26.9607 4.72367 22.2705 5.03108 18.0402 6.78331C13.81 8.53554 10.2761 11.6346 7.9867 15.6C5.69731 19.5653 4.78033 24.1753 5.37798 28.7149C5.97563 33.2545 8.05451 37.4701 11.2922 40.7078C14.5299 43.9455 18.7455 46.0244 23.2851 46.622C27.8247 47.2197 32.4347 46.3027 36.4 44.0133C37.6436 43.2953 39.2337 43.7214 39.9517 44.965C40.6696 46.2085 40.2436 47.7987 39 48.5166C34.0433 51.3784 28.2809 52.5246 22.6063 51.7775C16.9318 51.0305 11.6624 48.4319 7.61525 44.3847C3.56814 40.3376 0.969534 35.0682 0.22247 29.3937C-0.524594 23.7191 0.621631 17.9567 3.48337 13C6.34512 8.04331 10.7624 4.16942 16.0503 1.97914ZM33.8 26C33.8 21.6922 30.3078 18.2 26 18.2C21.6922 18.2 18.2 21.6922 18.2 26C18.2 30.3078 21.6922 33.8 26 33.8C30.3078 33.8 33.8 30.3078 33.8 26Z" fill="black"/>
</svg>
