<svg width="98" height="99" viewBox="0 0 98 99" fill="none" xmlns="http://www.w3.org/2000/svg">
<path fill-rule="evenodd" clip-rule="evenodd" d="M49 16.5C37.7241 16.5 28.5833 25.7341 28.5833 37.125C28.5833 48.9261 34.1787 60.4661 40.1289 69.3255C43.0687 73.7026 46.0138 77.3053 48.2215 79.81C48.4929 80.1179 48.7528 80.4089 49 80.6824C49.2471 80.4089 49.507 80.1179 49.7784 79.81C51.9861 77.3053 54.9312 73.7026 57.871 69.3255C63.8213 60.4661 69.4166 48.9261 69.4166 37.125C69.4166 25.7341 60.2758 16.5 49 16.5ZM49 86.625C46.1911 89.619 46.1902 89.6182 46.1892 89.6172L46.1802 89.6086L46.1604 89.5895L46.0947 89.5257C46.0394 89.4718 45.9616 89.3955 45.8626 89.2972C45.6647 89.1008 45.3823 88.8166 45.0274 88.4499C44.3179 87.7167 43.3171 86.6518 42.1222 85.2962C39.7361 82.589 36.5562 78.7 33.371 73.9575C27.0713 64.5779 20.4166 51.3679 20.4166 37.125C20.4166 21.1778 33.2138 8.25 49 8.25C64.7861 8.25 77.5833 21.1778 77.5833 37.125C77.5833 51.3679 70.9286 64.5779 64.6289 73.9575C61.4437 78.7 58.2638 82.589 55.8777 85.2962C54.6828 86.6518 53.682 87.7167 52.9725 88.4499C52.6176 88.8166 52.3352 89.1008 52.1373 89.2972C52.0383 89.3955 51.9605 89.4718 51.9052 89.5257L51.8395 89.5895L51.8197 89.6086L51.8131 89.6149C51.8121 89.6158 51.8088 89.619 49 86.625ZM49 86.625L51.8088 89.619C50.2337 91.127 47.7643 91.1252 46.1892 89.6172L49 86.625ZM49 33C46.7448 33 44.9166 34.8468 44.9166 37.125C44.9166 39.4032 46.7448 41.25 49 41.25C51.2551 41.25 53.0833 39.4032 53.0833 37.125C53.0833 34.8468 51.2551 33 49 33ZM36.75 37.125C36.75 30.2905 42.2345 24.75 49 24.75C55.7654 24.75 61.25 30.2905 61.25 37.125C61.25 43.9595 55.7654 49.5 49 49.5C42.2345 49.5 36.75 43.9595 36.75 37.125Z" fill="white"/>
</svg>
