<svg width="51" height="51" viewBox="0 0 51 51" fill="none" xmlns="http://www.w3.org/2000/svg">
<rect width="51" height="51" fill="white"/>
<path d="M9.08745 36V14.9091H17.4085C19.0013 14.9091 20.3607 15.194 21.4866 15.7638C22.6194 16.3268 23.481 17.1267 24.0715 18.1634C24.6688 19.1932 24.9674 20.4049 24.9674 21.7987C24.9674 23.1992 24.6653 24.4041 24.0612 25.4134C23.457 26.4157 22.5817 27.1847 21.4351 27.7202C20.2954 28.2557 18.9155 28.5234 17.2952 28.5234H11.7238V24.9396H16.5743C17.4256 24.9396 18.1328 24.8229 18.6958 24.5895C19.2587 24.3561 19.6775 24.0059 19.9522 23.5391C20.2336 23.0722 20.3744 22.4921 20.3744 21.7987C20.3744 21.0984 20.2336 20.5079 19.9522 20.0273C19.6775 19.5468 19.2553 19.1829 18.6855 18.9357C18.1225 18.6817 17.4119 18.5547 16.5537 18.5547H13.5466V36H9.08745ZM20.4774 26.402L25.7192 36H20.7966L15.6681 26.402H20.4774ZM37.6001 29.2649V20.1818H41.9872V36H37.7752V33.1268H37.6104C37.2534 34.0536 36.6596 34.7985 35.8288 35.3615C35.005 35.9245 33.9992 36.206 32.8114 36.206C31.7541 36.206 30.8239 35.9657 30.0206 35.4851C29.2173 35.0045 28.5891 34.3214 28.136 33.4357C27.6897 32.5501 27.4632 31.4893 27.4563 30.2536V20.1818H31.8434V29.4709C31.8503 30.4046 32.1008 31.1426 32.5952 31.685C33.0895 32.2274 33.752 32.4986 34.5827 32.4986C35.1114 32.4986 35.6057 32.3784 36.0657 32.1381C36.5257 31.891 36.8964 31.5271 37.1779 31.0465C37.4663 30.5659 37.607 29.9721 37.6001 29.2649Z" fill="black"/>
</svg>
