<svg width="51" height="51" viewBox="0 0 51 51" fill="none" xmlns="http://www.w3.org/2000/svg">
<g clip-path="url(#clip0_8_32)">
<path d="M25.5 51C39.5833 51 51 39.5833 51 25.5C51 11.4167 39.5833 0 25.5 0C11.4167 0 0 11.4167 0 25.5C0 39.5833 11.4167 51 25.5 51ZM21.2591 30.6866L33.083 20.0164C33.6019 19.5559 32.9697 19.3313 32.2807 19.749L17.6877 28.9556L11.3843 26.9882C10.0231 26.5714 10.0133 25.636 11.69 24.9635L36.2528 15.4922C37.3747 14.9828 38.4575 15.7616 38.0292 17.4787L33.8461 37.1908C33.554 38.5916 32.7077 38.9266 31.535 38.2795L25.1629 33.5717L22.1 36.55C21.7442 36.896 21.4625 37.1875 20.825 37.1875L21.2591 30.6866Z" fill="black"/>
</g>
<defs>
<clipPath id="clip0_8_32">
<rect width="51" height="51" fill="white"/>
</clipPath>
</defs>
</svg>
