<svg width="49" height="50" viewBox="0 0 49 50" fill="none" xmlns="http://www.w3.org/2000/svg">
<path d="M24.9443 0C11.6599 0 0.889656 10.9041 0.889656 24.3562C0.889656 28.9578 2.15097 33.2614 4.34142 36.9329L0 50L13.3179 45.6828C16.7641 47.6119 20.7275 48.7125 24.9443 48.7125C38.2304 48.7125 49 37.8068 49 24.3562C49 10.9041 38.2304 0 24.9443 0ZM36.9058 33.606C36.3398 35.0376 33.7805 36.3441 32.6512 36.4042C31.5231 36.4653 31.4909 37.2964 25.3405 34.5701C19.1909 31.8431 15.4911 25.2125 15.1994 24.7855C14.9075 24.36 12.8172 21.3204 12.93 18.2615C13.0435 15.202 14.6851 13.7586 15.271 13.1583C15.8563 12.557 16.5273 12.4493 16.937 12.4425C17.4214 12.4345 17.735 12.4278 18.0935 12.4413C18.4516 12.4551 18.9895 12.3648 19.4552 13.6287C19.9207 14.8924 21.0349 17.9984 21.1774 18.315C21.3198 18.6318 21.408 18.9987 21.1886 19.4055C20.9685 19.8132 20.8558 20.0679 20.5366 20.4192C20.2156 20.7705 19.8613 21.2051 19.575 21.4738C19.2556 21.7712 18.922 22.0956 19.2578 22.7315C19.5933 23.3669 20.7511 25.4498 22.5148 27.1663C24.7816 29.3729 26.7365 30.1048 27.3381 30.4383C27.9413 30.7735 28.3012 30.7363 28.6753 30.3346C29.0476 29.9329 30.2764 28.5772 30.7092 27.972C31.1418 27.3651 31.5471 27.4839 32.1029 27.7121C32.6583 27.9411 35.62 29.5598 36.2234 29.8941C36.826 30.2277 37.2288 30.3996 37.3729 30.6642C37.5169 30.9298 37.4714 32.1743 36.9058 33.606Z" fill="black"/>
</svg>
